<svg width="239" height="326" viewBox="0 0 239 326" fill="none" xmlns="http://www.w3.org/2000/svg">
<path d="M0 33.6895C0 28.9694 0.813802 24.5749 2.44141 20.5059C4.23177 16.2741 6.5918 12.6934 9.52148 9.76367C12.4512 6.67122 15.8691 4.3112 19.7754 2.68359C23.8444 0.893229 28.1576 -0.00195312 32.7148 -0.00195312C37.2721 -0.00195312 41.5039 0.893229 45.4102 2.68359C49.4792 4.3112 52.8971 6.67122 55.6641 9.76367C58.5938 12.6934 60.8724 16.2741 62.5 20.5059C64.1276 24.5749 64.9414 28.9694 64.9414 33.6895V108.641C67.5456 105.548 70.8822 102.7 74.9512 100.096C79.1829 97.4915 83.7402 95.2129 88.623 93.2598C93.6686 91.3066 98.7956 89.7604 104.004 88.6211C109.375 87.4818 114.502 86.9121 119.385 86.9121C135.661 86.9121 151.042 90.0859 165.527 96.4336C180.013 102.618 192.627 111.163 203.369 122.068C214.111 132.811 222.575 145.424 228.76 159.91C235.107 174.396 238.281 189.858 238.281 206.297C238.281 222.736 235.107 238.198 228.76 252.684C222.575 267.007 214.111 279.539 203.369 290.281C192.627 301.023 180.013 309.568 165.527 315.916C151.042 322.101 135.661 325.193 119.385 325.193C102.946 325.193 87.4837 322.101 72.998 315.916C58.6751 309.568 46.0612 301.023 35.1562 290.281C24.2513 279.539 15.625 267.007 9.27734 252.684C3.09245 238.198 0 222.736 0 206.297V33.6895ZM65.1855 206.297C65.1855 213.784 66.569 220.783 69.3359 227.293C72.2656 233.803 76.1719 239.5 81.0547 244.383C86.1003 249.266 91.8783 253.09 98.3887 255.857C105.062 258.624 112.061 260.008 119.385 260.008C126.872 260.008 133.87 258.624 140.381 255.857C146.891 253.09 152.588 249.266 157.471 244.383C162.354 239.5 166.178 233.803 168.945 227.293C171.875 220.783 173.34 213.784 173.34 206.297C173.34 198.81 171.875 191.811 168.945 185.301C166.178 178.79 162.354 173.094 157.471 168.211C152.588 163.328 146.891 159.503 140.381 156.736C133.87 153.969 126.872 152.586 119.385 152.586C112.061 152.586 105.062 153.969 98.3887 156.736C91.8783 159.503 86.1003 163.328 81.0547 168.211C76.1719 173.094 72.2656 178.79 69.3359 185.301C66.569 191.811 65.1855 198.81 65.1855 206.297Z" fill="white"/>
</svg>
