<svg width="920" height="508" viewBox="0 0 920 508" fill="none" xmlns="http://www.w3.org/2000/svg">
<path d="M21.7285 45.1816C21.7285 40.4616 22.5423 36.0671 24.1699 31.998C25.9603 27.7663 28.3203 24.1855 31.25 21.2559C34.1797 18.1634 37.5977 15.8034 41.5039 14.1758C45.5729 12.3854 49.8861 11.4902 54.4434 11.4902C59.0007 11.4902 63.2324 12.3854 67.1387 14.1758C71.2077 15.8034 74.6257 18.1634 77.3926 21.2559C80.3223 24.1855 82.6009 27.7663 84.2285 31.998C85.8561 36.0671 86.6699 40.4616 86.6699 45.1816V120.133C89.2741 117.04 92.6107 114.192 96.6797 111.588C100.911 108.984 105.469 106.705 110.352 104.752C115.397 102.799 120.524 101.253 125.732 100.113C131.104 98.974 136.23 98.4043 141.113 98.4043C157.389 98.4043 172.77 101.578 187.256 107.926C201.742 114.111 214.355 122.656 225.098 133.561C235.84 144.303 244.303 156.917 250.488 171.402C256.836 185.888 260.01 201.35 260.01 217.789C260.01 234.228 256.836 249.69 250.488 264.176C244.303 278.499 235.84 291.031 225.098 301.773C214.355 312.516 201.742 321.061 187.256 327.408C172.77 333.593 157.389 336.686 141.113 336.686C124.674 336.686 109.212 333.593 94.7266 327.408C80.4036 321.061 67.7897 312.516 56.8848 301.773C45.9798 291.031 37.3535 278.499 31.0059 264.176C24.821 249.69 21.7285 234.228 21.7285 217.789V45.1816ZM86.9141 217.789C86.9141 225.276 88.2975 232.275 91.0645 238.785C93.9941 245.296 97.9004 250.992 102.783 255.875C107.829 260.758 113.607 264.583 120.117 267.35C126.79 270.117 133.789 271.5 141.113 271.5C148.6 271.5 155.599 270.117 162.109 267.35C168.62 264.583 174.316 260.758 179.199 255.875C184.082 250.992 187.907 245.296 190.674 238.785C193.604 232.275 195.068 225.276 195.068 217.789C195.068 210.302 193.604 203.303 190.674 196.793C187.907 190.283 184.082 184.586 179.199 179.703C174.316 174.82 168.62 170.995 162.109 168.229C155.599 165.462 148.6 164.078 141.113 164.078C133.789 164.078 126.79 165.462 120.117 168.229C113.607 170.995 107.829 174.82 102.783 179.703C97.9004 184.586 93.9941 190.283 91.0645 196.793C88.2975 203.303 86.9141 210.302 86.9141 217.789ZM346.924 217.789C346.924 225.276 348.307 232.275 351.074 238.785C354.004 245.296 357.91 250.992 362.793 255.875C367.839 260.758 373.617 264.583 380.127 267.35C386.637 270.117 393.555 271.5 400.879 271.5C408.366 271.5 415.365 270.117 421.875 267.35C428.548 264.583 434.326 260.758 439.209 255.875C444.092 250.992 447.917 245.296 450.684 238.785C453.613 232.275 455.078 225.276 455.078 217.789C455.078 210.302 453.613 203.303 450.684 196.793C447.917 190.283 444.092 184.586 439.209 179.703C434.326 174.82 428.548 170.995 421.875 168.229C415.365 165.462 408.366 164.078 400.879 164.078C393.555 164.078 386.637 165.462 380.127 168.229C373.617 170.995 367.839 174.82 362.793 179.703C357.91 184.586 354.004 190.283 351.074 196.793C348.307 203.303 346.924 210.302 346.924 217.789ZM281.738 217.789C281.738 201.35 284.831 185.888 291.016 171.402C297.363 156.917 305.908 144.303 316.65 133.561C327.555 122.656 340.169 114.111 354.492 107.926C368.978 101.578 384.44 98.4043 400.879 98.4043C417.318 98.4043 432.78 101.578 447.266 107.926C461.751 114.111 474.365 122.656 485.107 133.561C495.85 144.303 504.313 156.917 510.498 171.402C516.846 185.888 520.02 201.35 520.02 217.789C520.02 234.228 516.846 249.69 510.498 264.176C504.313 278.499 495.85 291.031 485.107 301.773C474.365 312.516 461.751 321.061 447.266 327.408C432.78 333.593 417.318 336.686 400.879 336.686C384.44 336.686 368.978 333.593 354.492 327.408C340.169 321.061 327.555 312.516 316.65 301.773C305.908 291.031 297.363 278.499 291.016 264.176C284.831 249.69 281.738 234.228 281.738 217.789ZM556.396 44.4492C556.396 40.0547 557.21 35.9043 558.838 31.998C560.628 28.0918 562.988 24.6738 565.918 21.7441C568.848 18.8145 572.266 16.5358 576.172 14.9082C580.241 13.2806 584.473 12.4668 588.867 12.4668C593.424 12.4668 597.656 13.2806 601.562 14.9082C605.469 16.5358 608.887 18.8145 611.816 21.7441C614.746 24.6738 617.025 28.0918 618.652 31.998C620.443 35.9043 621.338 40.0547 621.338 44.4492V302.018C621.338 306.575 620.443 310.807 618.652 314.713C617.025 318.619 614.746 322.037 611.816 324.967C608.887 327.734 605.469 329.931 601.562 331.559C597.656 333.186 593.424 334 588.867 334C584.473 334 580.241 333.186 576.172 331.559C572.266 329.931 568.848 327.734 565.918 324.967C562.988 322.037 560.628 318.619 558.838 314.713C557.21 310.807 556.396 306.575 556.396 302.018V44.4492ZM659.18 217.789C659.18 201.35 662.272 185.888 668.457 171.402C674.805 156.917 683.35 144.303 694.092 133.561C704.997 122.656 717.611 114.111 731.934 107.926C746.419 101.578 761.882 98.4043 778.32 98.4043C792.318 98.4043 803.548 100.195 812.012 103.775C820.475 107.193 827.311 112.32 832.52 119.156V45.4258C832.52 40.7057 833.333 36.3112 834.961 32.2422C836.589 28.0104 838.786 24.4297 841.553 21.5C844.482 18.4076 847.9 16.0475 851.807 14.4199C855.713 12.6296 860.026 11.7344 864.746 11.7344C869.303 11.7344 873.535 12.6296 877.441 14.4199C881.51 16.0475 885.01 18.4076 887.939 21.5C890.869 24.4297 893.148 28.0104 894.775 32.2422C896.566 36.3112 897.461 40.7057 897.461 45.4258V217.789C897.461 234.228 894.287 249.69 887.939 264.176C881.755 278.499 873.291 291.031 862.549 301.773C851.807 312.516 839.193 321.061 824.707 327.408C810.221 333.593 794.759 336.686 778.32 336.686C761.882 336.686 746.419 333.593 731.934 327.408C717.611 321.061 704.997 312.516 694.092 301.773C683.35 291.031 674.805 278.499 668.457 264.176C662.272 249.69 659.18 234.228 659.18 217.789ZM724.365 217.789C724.365 225.276 725.749 232.275 728.516 238.785C731.445 245.296 735.352 250.992 740.234 255.875C745.28 260.758 751.058 264.583 757.568 267.35C764.079 270.117 770.996 271.5 778.32 271.5C785.807 271.5 792.806 270.117 799.316 267.35C805.99 264.583 811.768 260.758 816.65 255.875C821.533 250.992 825.358 245.296 828.125 238.785C831.055 232.275 832.52 225.276 832.52 217.789C832.52 210.302 831.055 203.303 828.125 196.793C825.358 190.283 821.533 184.586 816.65 179.703C811.768 174.82 805.99 170.995 799.316 168.229C792.806 165.462 785.807 164.078 778.32 164.078C770.996 164.078 764.079 165.462 757.568 168.229C751.058 170.995 745.28 174.82 740.234 179.703C735.352 184.586 731.445 190.283 728.516 196.793C725.749 203.303 724.365 210.302 724.365 217.789Z" fill="white"/>
<path d="M389.26 470.5H325.36V371.1H389.26V381.75H336.72V415.12H386.42V425.77H336.72V459.85H389.26V470.5ZM426.884 470.5H415.524V371.1H434.694L479.424 457.01H482.264V371.1H493.624V470.5H474.454L429.724 384.59H426.884V470.5ZM587.339 470.5H523.439V371.1H587.339V381.75H534.799V415.12H584.499V425.77H534.799V459.85H587.339V470.5ZM647.541 432.16L687.443 470.5H673.243L633.483 432.16H624.963V470.5H613.603V371.1H656.913C662.12 371.1 666.853 372.425 671.113 375.076C675.468 377.727 678.923 381.371 681.479 386.01C684.035 390.649 685.313 395.855 685.313 401.63C685.313 407.405 684.035 412.611 681.479 417.25C678.923 421.889 675.468 425.533 671.113 428.184C666.853 430.835 662.12 432.16 656.913 432.16H647.541ZM624.963 421.51H656.913C661.647 421.51 665.67 419.664 668.983 415.972C672.297 412.28 673.953 407.499 673.953 401.63C673.953 395.761 672.297 390.98 668.983 387.288C665.67 383.596 661.647 381.75 656.913 381.75H624.963V421.51ZM758.393 419.38H799.573V470.5H790.343L788.923 456.3H788.213C785.089 460.276 780.498 463.873 774.439 467.092C768.475 470.311 761.943 471.92 754.843 471.92C746.134 471.92 738.135 469.79 730.845 465.53C723.556 461.175 717.781 455.117 713.521 447.354C709.356 439.591 707.273 430.74 707.273 420.8C707.273 410.86 709.356 402.009 713.521 394.246C717.781 386.483 723.556 380.472 730.845 376.212C738.135 371.857 746.134 369.68 754.843 369.68C764.878 369.68 773.919 372.52 781.965 378.2C790.107 383.88 795.739 391.453 798.863 400.92H786.793C783.953 394.577 779.599 389.56 773.729 385.868C767.955 382.176 761.659 380.33 754.843 380.33C748.217 380.33 742.111 382.034 736.525 385.442C731.035 388.85 726.68 393.631 723.461 399.784C720.243 405.937 718.633 412.943 718.633 420.8C718.633 428.657 720.243 435.663 723.461 441.816C726.68 447.969 731.035 452.75 736.525 456.158C742.111 459.566 748.217 461.27 754.843 461.27C760.618 461.27 766.061 459.85 771.173 457.01C776.38 454.075 780.498 450.241 783.527 445.508C786.651 440.775 788.213 435.852 788.213 430.74V429.32H758.393V419.38ZM861.343 470.5H849.983V432.87L813.773 371.1H825.843L854.243 420.09H857.083L885.483 371.1H897.553L861.343 432.87V470.5Z" fill="white"/>
</svg>
