<svg width="27" height="27" viewBox="0 0 27 27" fill="none" xmlns="http://www.w3.org/2000/svg">
<path d="M16.6145 23.8848C15.793 23.8848 14.99 23.6412 14.3069 23.1848C13.6239 22.7284 13.0915 22.0797 12.7771 21.3208C12.4627 20.5618 12.3805 19.7266 12.5407 18.9209C12.701 18.1152 13.0966 17.3751 13.6775 16.7942C14.2584 16.2133 14.9985 15.8177 15.8042 15.6574C16.6099 15.4972 17.4451 15.5794 18.2041 15.8938C18.963 16.2082 19.6117 16.7406 20.0681 17.4236C20.5245 18.1067 20.7681 18.9097 20.7681 19.7312C20.7681 20.2767 20.6607 20.8168 20.452 21.3208C20.2432 21.8247 19.9373 22.2826 19.5516 22.6683C19.1659 23.054 18.708 23.3599 18.2041 23.5687C17.7001 23.7774 17.16 23.8848 16.6145 23.8848ZM16.6145 17.6541C16.2038 17.6544 15.8023 17.7764 15.4608 18.0048C15.1194 18.2333 14.8534 18.5578 14.6964 18.9374C14.5394 19.317 14.4985 19.7346 14.5788 20.1375C14.6591 20.5403 14.8571 20.9103 15.1477 21.2007C15.4383 21.491 15.8085 21.6886 16.2114 21.7686C16.6143 21.8486 17.0319 21.8073 17.4114 21.6499C17.7909 21.4926 18.1151 21.2263 18.3433 20.8846C18.5714 20.543 18.693 20.1414 18.6929 19.7306C18.6928 19.4578 18.639 19.1877 18.5345 18.9356C18.43 18.6836 18.2769 18.4547 18.0839 18.2618C17.8909 18.069 17.6618 17.9161 17.4097 17.8118C17.1576 17.7075 16.8874 17.654 16.6145 17.6541Z" fill="#A1B502"/>
<path d="M24.9265 27.0001H8.31149C7.76061 27.0001 7.23228 26.7813 6.84275 26.3917C6.45321 26.0022 6.23438 25.4739 6.23438 24.923V15.5766C6.23437 15.0257 6.45321 14.4974 6.84275 14.1078C7.23228 13.7183 7.76061 13.4995 8.31149 13.4995H11.7179L12.283 11.8041C12.4209 11.3904 12.6854 11.0307 13.0392 10.7757C13.393 10.5208 13.818 10.3837 14.254 10.3838H18.9878C19.4239 10.3837 19.849 10.521 20.2027 10.776C20.5565 11.031 20.821 11.391 20.9588 11.8047L21.5239 13.5001H24.9303C25.4802 13.5014 26.0071 13.7208 26.3956 14.11C26.784 14.4993 27.0022 15.0267 27.0024 15.5766V24.923C27.0024 25.4736 26.7837 26.0018 26.3945 26.3913C26.0052 26.7808 25.4772 26.9998 24.9265 27.0001ZM8.31149 24.923H24.9265V15.5766H20.0251L18.9865 12.4609H14.2515L13.2129 15.5766H8.31149V24.923Z" fill="#A1B502"/>
<path d="M24.9219 8.30786H26.999V10.385H24.9219V8.30786Z" fill="#A1B502"/>
<path d="M24.9219 4.15356H26.999V6.23068H24.9219V4.15356Z" fill="#A1B502"/>
<path d="M24.9219 0H26.999V2.07712H24.9219V0Z" fill="#A1B502"/>
<path d="M20.7656 0H22.8427V2.07712H20.7656V0Z" fill="#A1B502"/>
<path d="M16.6172 0H18.6943V2.07712H16.6172V0Z" fill="#A1B502"/>
<path d="M12.4609 0H14.5381V2.07712H12.4609V0Z" fill="#A1B502"/>
<path d="M8.30469 0H10.3818V2.07712H8.30469V0Z" fill="#A1B502"/>
<path d="M4.15625 0H6.23337V2.07712H4.15625V0Z" fill="#A1B502"/>
<path d="M0 0H2.07712V2.07712H0V0Z" fill="#A1B502"/>
<path d="M0 4.15356H2.07712V6.23068H0V4.15356Z" fill="#A1B502"/>
<path d="M0 8.30786H2.07712V10.385H0V8.30786Z" fill="#A1B502"/>
<path d="M0 12.4614H2.07712V14.5385H0V12.4614Z" fill="#A1B502"/>
<path d="M0 16.6157H2.07712V18.6928H0V16.6157Z" fill="#A1B502"/>
<path d="M0 20.7693H2.07712V22.8464H0V20.7693Z" fill="#A1B502"/>
<path d="M0 24.9229H2.07712V27H0V24.9229Z" fill="#A1B502"/>
</svg>
