<svg width="31" height="27" viewBox="0 0 31 27" fill="none" xmlns="http://www.w3.org/2000/svg">
<path d="M7.57115 26.5H1.89295C1.39091 26.5 0.90943 26.3006 0.554432 25.9456C0.199435 25.5906 0 25.1091 0 24.6071L0 11.3571C0 10.855 0.199435 10.3735 0.554432 10.0185C0.90943 9.66355 1.39091 9.46411 1.89295 9.46411H7.5718C8.07384 9.46411 8.55532 9.66355 8.91032 10.0185C9.26532 10.3735 9.46475 10.855 9.46475 11.3571V24.6071C9.46475 24.8557 9.41577 25.1019 9.3206 25.3316C9.22543 25.5613 9.08594 25.77 8.91009 25.9458C8.73424 26.1216 8.52549 26.261 8.29575 26.3561C8.06601 26.4512 7.81979 26.5001 7.57115 26.5ZM1.89295 11.3571V24.6071H7.5718V11.3571H1.89295Z" fill="#A1B502"/>
<path d="M18.9305 26.5H13.2523C12.7503 26.5 12.2688 26.3006 11.9138 25.9456C11.5588 25.5906 11.3594 25.1091 11.3594 24.6071V11.3571C11.3594 10.855 11.5588 10.3735 11.9138 10.0185C12.2688 9.66355 12.7503 9.46411 13.2523 9.46411H18.9312C19.4332 9.46411 19.9147 9.66355 20.2697 10.0185C20.6247 10.3735 20.8241 10.855 20.8241 11.3571V24.6071C20.8241 24.8557 20.7751 25.1019 20.68 25.3316C20.5848 25.5613 20.4453 25.77 20.2695 25.9458C20.0936 26.1216 19.8849 26.261 19.6551 26.3561C19.4254 26.4512 19.1792 26.5001 18.9305 26.5ZM13.2523 11.3571V24.6071H18.9312V11.3571H13.2523Z" fill="#A1B502"/>
<path d="M25.55 17.9819H23.6597V6.62488H16.0859V4.73193H23.6597C24.1617 4.73193 24.6432 4.93137 24.9982 5.28637C25.3532 5.64136 25.5527 6.12284 25.5527 6.62488L25.55 17.9819Z" fill="#A1B502"/>
<path d="M30.2844 13.25H28.3915V1.89295H20.8203V0H28.3915C28.8935 0 29.375 0.199435 29.73 0.554432C30.085 0.90943 30.2844 1.39091 30.2844 1.89295V13.25Z" fill="#A1B502"/>
</svg>
