<svg width="29" height="27" viewBox="0 0 29 27" fill="none" xmlns="http://www.w3.org/2000/svg">
<path d="M23.7401 26.5007H18.0238C17.7946 26.5007 17.5748 26.4096 17.4127 26.2476C17.2507 26.0855 17.1596 25.8657 17.1596 25.6365V17.5375C17.1594 17.3876 17.0998 17.2439 16.9938 17.1379C16.8878 17.032 16.7442 16.9723 16.5943 16.9721H11.8319C11.6821 16.9723 11.5384 17.032 11.4324 17.1379C11.3264 17.2439 11.2668 17.3876 11.2666 17.5375V25.6358C11.2666 25.865 11.1755 26.0848 11.0135 26.2468C10.8514 26.4089 10.6316 26.4999 10.4025 26.4999H4.68379C4.20179 26.4993 3.73973 26.3074 3.39912 25.9664C3.05851 25.6253 2.86719 25.163 2.86719 24.681V10.6244C2.86719 10.3952 2.95823 10.1754 3.12029 10.0134C3.28234 9.8513 3.50214 9.76025 3.73132 9.76025C3.96051 9.76025 4.1803 9.8513 4.34236 10.0134C4.50442 10.1754 4.59546 10.3952 4.59546 10.6244V24.681C4.59566 24.7044 4.60503 24.7267 4.62155 24.7432C4.63808 24.7598 4.66043 24.7691 4.68379 24.7693H9.53601V17.5375C9.53683 16.9294 9.77873 16.3465 10.2087 15.9165C10.6387 15.4866 11.2216 15.2447 11.8296 15.2439H16.592C17.2004 15.2441 17.7839 15.4857 18.2144 15.9157C18.6448 16.3458 18.8871 16.929 18.8879 17.5375V24.7724H23.7401C23.7635 24.7722 23.7858 24.7628 23.8023 24.7463C23.8189 24.7298 23.8282 24.7074 23.8284 24.6841V10.6275C23.8284 10.3983 23.9195 10.1785 24.0815 10.0164C24.2436 9.85437 24.4634 9.76333 24.6926 9.76333C24.9218 9.76333 25.1416 9.85437 25.3036 10.0164C25.4657 10.1785 25.5567 10.3983 25.5567 10.6275V24.681C25.5569 25.1631 25.3657 25.6256 25.0251 25.9668C24.6844 26.3081 24.2222 26.5001 23.7401 26.5007Z" fill="#A1B502"/>
<path d="M27.5493 14.1133C27.3266 14.1137 27.1124 14.0278 26.9517 13.8736L14.2708 1.73422C14.2312 1.72645 14.1905 1.72645 14.151 1.73422L1.46928 13.8705C1.38764 13.9506 1.29092 14.0137 1.18472 14.0561C1.07852 14.0985 0.96496 14.1195 0.850616 14.1177C0.736271 14.1159 0.623419 14.0914 0.518601 14.0457C0.413783 14 0.319083 13.9339 0.239992 13.8513C0.160901 13.7687 0.0989916 13.6712 0.0578521 13.5645C0.0167127 13.4578 -0.00283843 13.344 0.000332216 13.2297C0.00350286 13.1154 0.0293322 13.0028 0.0763229 12.8986C0.123314 12.7943 0.190531 12.7004 0.274079 12.6223L12.9542 0.487557C13.2977 0.173902 13.7461 0 14.2113 0C14.6764 0 15.1248 0.173902 15.4683 0.487557L28.1469 12.6239C28.2716 12.7431 28.3577 12.897 28.3942 13.0657C28.4307 13.2344 28.4158 13.4101 28.3515 13.5703C28.2872 13.7304 28.1765 13.8677 28.0335 13.9643C27.8905 14.0609 27.7219 14.1125 27.5493 14.1125V14.1133Z" fill="#A1B502"/>
<path d="M22.7848 9.52774C22.5556 9.52774 22.3358 9.43669 22.1738 9.27464C22.0117 9.11258 21.9207 8.89278 21.9207 8.6636V2.67994H20.7908V5.92525C20.7908 6.15443 20.6997 6.37423 20.5377 6.53629C20.3756 6.69834 20.1558 6.78939 19.9266 6.78939C19.6975 6.78939 19.4777 6.69834 19.3156 6.53629C19.1535 6.37423 19.0625 6.15443 19.0625 5.92525V1.8158C19.0625 1.58662 19.1535 1.36682 19.3156 1.20477C19.4777 1.04271 19.6975 0.951666 19.9266 0.951666H22.7848C22.8986 0.951261 23.0113 0.973314 23.1164 1.01656C23.2216 1.05981 23.3173 1.12339 23.3978 1.20368C23.4784 1.28396 23.5423 1.37936 23.586 1.4844C23.6296 1.58944 23.652 1.70206 23.652 1.8158V8.6636C23.652 8.77734 23.6296 8.88996 23.586 8.995C23.5423 9.10004 23.4784 9.19544 23.3978 9.27573C23.3173 9.35601 23.2216 9.41959 23.1164 9.46284C23.0113 9.50609 22.8986 9.52814 22.7848 9.52774Z" fill="#A1B502"/>
</svg>
