<svg width="27" height="27" viewBox="0 0 27 27" fill="none" xmlns="http://www.w3.org/2000/svg">
<path d="M26.0199 13.0087C26.0199 13.7438 25.802 14.4624 25.3936 15.0736C24.9853 15.6848 24.4049 16.1612 23.7258 16.4426C23.0467 16.724 22.2995 16.7977 21.5785 16.6544C20.8575 16.5112 20.1952 16.1574 19.6753 15.6377C19.1554 15.1181 18.8012 14.456 18.6576 13.7351C18.514 13.0142 18.5873 12.2669 18.8683 11.5877C19.1493 10.9084 19.6254 10.3278 20.2364 9.91913C20.8474 9.51047 21.5659 9.29214 22.3009 9.29175C22.7892 9.29149 23.2728 9.38744 23.724 9.57412C24.1752 9.7608 24.5852 10.0346 24.9305 10.3797C25.2759 10.7249 25.5499 11.1348 25.7368 11.5858C25.9237 12.0369 26.0199 12.5204 26.0199 13.0087Z" fill="#A1B502"/>
<path d="M18.5836 26.0175H16.7258V21.3716C16.7258 20.1394 16.2363 18.9577 15.365 18.0864C14.4937 17.2152 13.312 16.7257 12.0799 16.7257H6.50439C5.27222 16.7257 4.09052 17.2152 3.21924 18.0864C2.34797 18.9577 1.85849 20.1394 1.85849 21.3716V26.0175H0V21.3716C0 19.6465 0.685282 17.9921 1.90509 16.7723C3.1249 15.5525 4.77932 14.8672 6.50439 14.8672H12.0799C13.8049 14.8672 15.4593 15.5525 16.6792 16.7723C17.899 17.9921 18.5842 19.6465 18.5842 21.3716L18.5836 26.0175Z" fill="#A1B502"/>
<path d="M9.29345 1.85849C10.2123 1.85849 11.1106 2.13097 11.8746 2.64147C12.6386 3.15196 13.2341 3.87755 13.5857 4.72648C13.9373 5.57541 14.0293 6.50954 13.8501 7.41076C13.6708 8.31197 13.2283 9.13979 12.5786 9.78953C11.9289 10.4393 11.101 10.8818 10.1998 11.061C9.29861 11.2403 8.36447 11.1483 7.51555 10.7966C6.66662 10.445 5.94103 9.84953 5.43053 9.08551C4.92003 8.3215 4.64756 7.42326 4.64756 6.50439C4.64756 5.27222 5.13703 4.09052 6.00831 3.21924C6.87958 2.34797 8.06129 1.85849 9.29345 1.85849ZM9.29345 0C8.00701 0 6.74945 0.381476 5.67981 1.09619C4.61017 1.8109 3.77648 2.82675 3.28418 4.01527C2.79188 5.20379 2.66307 6.5116 2.91405 7.77333C3.16502 9.03506 3.7845 10.194 4.69416 11.1037C5.60381 12.0133 6.76278 12.6328 8.02451 12.8838C9.28624 13.1348 10.5941 13.006 11.7826 12.5137C12.9711 12.0214 13.9869 11.1877 14.7017 10.118C15.4164 9.04839 15.7978 7.79084 15.7978 6.50439C15.7978 5.65022 15.6296 4.80442 15.3027 4.01527C14.9759 3.22612 14.4967 2.50908 13.8928 1.90509C13.2888 1.3011 12.5717 0.821993 11.7826 0.495117C10.9934 0.168241 10.1476 0 9.29345 0Z" fill="#A1B502"/>
</svg>
